<?xml version="1.0" standalone="no"?>
<!DOCTYPE svg PUBLIC "-//W3C//DTD SVG 20010904//EN"
 "http://www.w3.org/TR/2001/REC-SVG-20010904/DTD/svg10.dtd">
<svg version="1.0" xmlns="http://www.w3.org/2000/svg"
 width="1200.000000pt" height="1200.000000pt" viewBox="0 0 1200.000000 1200.000000"
 preserveAspectRatio="xMidYMid meet">

<g transform="translate(0.000000,1200.000000) scale(0.100000,-0.100000)"
fill="#000000" stroke="none">
<path d="M9283 9919 c-49 -24 -103 -81 -132 -137 -11 -21 -39 -90 -62 -153
-117 -319 -301 -601 -569 -870 -159 -160 -290 -268 -472 -390 -454 -304 -995
-516 -1667 -653 l-203 -42 68 -46 c82 -54 225 -179 275 -240 91 -110 188 -286
234 -423 91 -270 91 -586 0 -851 -195 -568 -757 -935 -1353 -883 -434 38 -801
268 -1028 644 l-51 85 -58 -66 c-332 -378 -895 -489 -1352 -267 l-72 35 -36
107 c-39 118 -138 329 -205 436 -296 476 -773 832 -1231 920 -371 71 -698 -21
-930 -262 -205 -212 -299 -494 -286 -853 12 -339 131 -690 341 -1004 106 -158
186 -255 318 -381 254 -245 533 -403 828 -471 129 -30 316 -41 418 -25 l73 11
55 -41 c176 -130 540 -350 824 -497 378 -197 854 -391 1257 -513 1389 -419
2643 -345 3565 212 54 33 101 59 104 59 4 0 100 -47 213 -104 221 -112 408
-197 591 -269 171 -67 158 -66 150 -7 -10 75 7 174 47 275 19 50 35 98 36 108
2 14 -211 115 -1067 507 -588 269 -1080 500 -1093 512 -26 25 -30 48 -8 48 32
0 535 -167 785 -260 166 -62 1319 -586 1416 -644 l59 -35 58 64 c31 35 73 73
92 85 19 12 35 25 35 30 0 13 -256 160 -437 253 -90 45 -163 85 -163 88 0 4
24 38 54 76 77 98 232 338 306 473 318 577 533 1323 629 2185 35 310 52 597
58 1000 8 524 -9 931 -62 1535 -39 431 -54 503 -126 585 -64 72 -149 93 -226
54z m-8101 -3237 c71 -36 97 -57 149 -122 219 -270 145 -712 -144 -862 -58
-31 -68 -33 -167 -33 -99 0 -109 2 -172 33 -122 60 -232 210 -264 361 -48 226
42 475 214 593 111 77 266 89 384 30z"/>
<path d="M2480 9335 c0 -33 -11 -517 -25 -1075 -13 -558 -22 -1016 -21 -1017
2 -2 20 23 41 54 21 32 83 103 137 159 l98 101 0 111 0 112 98 49 c103 51 320
141 342 141 7 0 36 -19 64 -43 127 -107 173 -137 213 -137 74 0 219 -22 302
-46 180 -53 344 -150 484 -287 84 -83 85 -84 164 -101 l80 -17 119 119 119
120 -70 6 c-197 18 -513 108 -717 204 -258 121 -498 292 -714 507 -262 260
-389 443 -580 830 l-133 270 -1 -60z"/>
<path d="M2956 7799 c-8 -40 -8 -99 0 -99 14 0 104 35 103 40 -1 3 -22 24 -49
48 l-47 42 -7 -31z"/>
<path d="M3585 7109 c-63 -6 -175 -35 -175 -45 0 -4 11 -4 25 -2 42 8 137 -12
188 -39 58 -32 107 -84 144 -155 24 -46 28 -65 28 -138 0 -77 -3 -92 -33 -152
-36 -73 -87 -124 -161 -160 -67 -33 -216 -33 -284 0 -115 57 -190 173 -191
297 -1 39 2 84 7 100 15 62 -42 -47 -69 -130 -37 -114 -37 -256 0 -371 90
-281 368 -459 659 -423 86 11 122 22 202 62 119 59 220 159 280 276 15 30 16
43 4 131 -7 61 -10 155 -7 249 l6 150 -37 62 c-20 34 -66 90 -104 125 -132
125 -301 182 -482 163z"/>
<path d="M5641 7048 c-59 -11 -55 -20 14 -33 101 -18 216 -108 269 -211 140
-272 -85 -599 -392 -571 -192 18 -341 173 -360 372 l-8 80 -23 -60 c-40 -104
-54 -190 -48 -300 10 -181 73 -321 202 -451 193 -195 449 -257 716 -174 97 30
185 86 274 175 340 337 242 901 -193 1119 -119 60 -299 81 -451 54z"/>
<path d="M10393 3130 c-65 -13 -174 -60 -219 -93 -102 -78 -188 -238 -207
-387 -10 -80 -9 -94 16 -196 39 -160 83 -240 192 -349 101 -101 154 -133 350
-210 280 -111 717 -306 983 -439 72 -36 134 -66 136 -66 3 0 -4 30 -15 68 -11
37 -54 189 -95 337 -42 149 -96 335 -121 414 -212 683 -444 934 -862 930 -64
-1 -135 -5 -158 -9z m290 -85 c200 -84 209 -372 13 -472 -93 -48 -210 -33
-291 39 -59 52 -80 101 -80 193 0 69 4 86 27 126 70 120 206 166 331 114z"/>
</g>
</svg>
